<?xml version="1.0" encoding="UTF-8" standalone="no"?>
<!-- Generator: Adobe Illustrator 16.0.0, SVG Export Plug-In . SVG Version: 6.00 Build 0)  -->

<svg
   xmlns:dc="http://purl.org/dc/elements/1.1/"
   xmlns:cc="http://creativecommons.org/ns#"
   xmlns:rdf="http://www.w3.org/1999/02/22-rdf-syntax-ns#"
   xmlns:svg="http://www.w3.org/2000/svg"
   xmlns="http://www.w3.org/2000/svg"
   xmlns:xlink="http://www.w3.org/1999/xlink"
   xmlns:sodipodi="http://sodipodi.sourceforge.net/DTD/sodipodi-0.dtd"
   xmlns:inkscape="http://www.inkscape.org/namespaces/inkscape"
   version="1.1"
   id="Capa_1"
   x="0px"
   y="0px"
   width="308.45581"
   height="490.41095"
   viewBox="0 0 308.4558 490.41094"
   xml:space="preserve"
   sodipodi:docname="logo.svg"
   inkscape:version="0.92.5 (2060ec1f9f, 2020-04-08)"><metadata
   id="metadata41"><rdf:RDF><cc:Work
       rdf:about=""><dc:format>image/svg+xml</dc:format><dc:type
         rdf:resource="http://purl.org/dc/dcmitype/StillImage" /></cc:Work></rdf:RDF></metadata><defs
   id="defs39"><linearGradient
     inkscape:collect="always"
     xlink:href="#linearGradient4772"
     id="linearGradient4806"
     gradientUnits="userSpaceOnUse"
     x1="188.18359"
     y1="240.68066"
     x2="348.6875"
     y2="240.68066"
     gradientTransform="translate(-30.793134,-27.58532)" /><linearGradient
     inkscape:collect="always"
     id="linearGradient4772"><stop
       style="stop-color:#6300ff;stop-opacity:1;"
       offset="0"
       id="stop4768" /><stop
       id="stop4792"
       offset="0.22170742"
       style="stop-color:#0b19ff;stop-opacity:0.81568629" /><stop
       style="stop-color:#0924ff;stop-opacity:0.73333333;"
       offset="0.357063"
       id="stop4834" /><stop
       style="stop-color:#2c2aff;stop-opacity:0.69803923"
       offset="0.42474076"
       id="stop4798" /><stop
       id="stop4824"
       offset="0.47211522"
       style="stop-color:#762cff;stop-opacity:0.68235296" /><stop
       id="stop4782"
       offset="0.56686413"
       style="stop-color:#a931ff;stop-opacity:0.65490198" /><stop
       id="stop4778"
       offset="0.56686413"
       style="stop-color:#5c43ff;stop-opacity:0.53725493" /><stop
       style="stop-color:#4146ff;stop-opacity:0.50980395"
       offset="0.68868411"
       id="stop4810" /><stop
       id="stop4832"
       offset="0.74959415"
       style="stop-color:#7047ff;stop-opacity:0.69411767" /><stop
       id="stop4826"
       offset="0.81050414"
       style="stop-color:#9f48ff;stop-opacity:0.48627451;" /><stop
       style="stop-color:#c44aff;stop-opacity:0.48235294"
       offset="0.81050414"
       id="stop4808" /><stop
       id="stop4830"
       offset="0.86464638"
       style="stop-color:#aa4cb9;stop-opacity:0.95686275" /><stop
       id="stop4828"
       offset="0.90525305"
       style="stop-color:#d24e85;stop-opacity:0.84974092" /><stop
       style="stop-color:#d950ff;stop-opacity:0.44705883"
       offset="0.94585973"
       id="stop4802" /><stop
       style="stop-color:#ff5cff;stop-opacity:0.36862746"
       offset="1"
       id="stop4800" /><stop
       id="stop4776"
       offset="1"
       style="stop-color:#f66cff;stop-opacity:0.26274511" /><stop
       style="stop-color:#833dff;stop-opacity:0.14901961"
       offset="1"
       id="stop4804" /><stop
       style="stop-color:#6300ff;stop-opacity:0;"
       offset="1"
       id="stop4770" /></linearGradient><linearGradient
     inkscape:collect="always"
     xlink:href="#linearGradient4772"
     id="linearGradient4806-3"
     gradientUnits="userSpaceOnUse"
     x1="188.18359"
     y1="240.68066"
     x2="348.6875"
     y2="240.68066"
     gradientTransform="matrix(1.1132215,0,0,1.0509374,-73.125849,-46.494371)" /><linearGradient
     inkscape:collect="always"
     xlink:href="#linearGradient4772"
     id="linearGradient1125"
     gradientUnits="userSpaceOnUse"
     gradientTransform="matrix(1.1132215,0,0,1.0509374,-149.87397,-44.621611)"
     x1="188.18359"
     y1="240.68066"
     x2="348.6875"
     y2="240.68066" /></defs><sodipodi:namedview
   pagecolor="#ffffff"
   bordercolor="#666666"
   borderopacity="1"
   objecttolerance="10"
   gridtolerance="10"
   guidetolerance="10"
   inkscape:pageopacity="0"
   inkscape:pageshadow="2"
   inkscape:window-width="1920"
   inkscape:window-height="1060"
   id="namedview37"
   showgrid="false"
   inkscape:zoom="0.97277065"
   inkscape:cx="-96.187007"
   inkscape:cy="259.56006"
   inkscape:window-x="1920"
   inkscape:window-y="0"
   inkscape:window-maximized="1"
   inkscape:current-layer="Capa_1" />
<g
   id="g4"
   transform="translate(-58.575626,108.00013)"
   style="fill:#ffffff;fill-opacity:1;stroke:#898989;stroke-width:5.19999981;stroke-miterlimit:4;stroke-dasharray:none;stroke-opacity:1">
	<path
   style="fill:#ffffff;fill-opacity:1;stroke:#898989;stroke-width:5.19999981;stroke-miterlimit:4;stroke-dasharray:none;stroke-opacity:1"
   d="m 212.80258,-105.40013 c -83.751,0 -151.626954,67.876953 -151.626954,151.62695 0,82.449 49.695144,92.04503 58.994144,181.95703 h 0.0273 c 0,8.382 6.78116,15.16211 15.16016,15.16211 h 154.88672 c 8.38299,0 15.16796,-6.78011 15.16796,-15.16211 9.326,-89.912 59.01953,-99.50803 59.01954,-181.95703 0,-83.749997 -67.87791,-151.62695 -151.62891,-151.62695 z m -75.81055,363.90625 c -8.384,0 -15.16601,6.78597 -15.16601,15.16797 0,8.378 6.78201,15.16211 15.16601,15.16211 h 151.62696 c 8.37799,0 15.16406,-6.78411 15.16406,-15.16211 10e-4,-8.382 -6.78411,-15.16797 -15.16211,-15.16797 z m 0,45.49023 c -8.384,0 -15.16601,6.78511 -15.16601,15.16211 0,8.383 6.78201,15.16797 15.16601,15.16797 h 151.62696 c 8.37799,0 15.16406,-6.78497 15.16406,-15.16797 10e-4,-8.377 -6.78411,-15.16211 -15.16211,-15.16211 z m 15.1582,45.48828 c 0.001,16.764 13.56413,30.32617 30.32813,30.32618 h 60.65039 c 16.76,0 30.32227,-13.56218 30.32227,-30.32618 z"
   id="path2"
   inkscape:connector-curvature="0" />
<path
   style="opacity:0.80319998;fill:#898989;fill-opacity:1;fill-rule:nonzero;stroke:#898989;stroke-width:5.19999981;stroke-miterlimit:4;stroke-dasharray:none;stroke-opacity:1"
   d="m 148.40784,391.07579 c -8.80994,-5.93701 -8.39981,-18.25164 0.76199,-22.88004 l 3.23748,-1.63553 78.53288,0.016 c 74.87647,0.0152 78.67092,0.0786 81.49762,1.36247 9.53497,4.33058 9.97608,17.78008 0.76729,23.39532 -2.20642,1.34541 -4.80077,1.38929 -82.31144,1.39192 l -80.0332,0.003 z"
   id="path1010"
   inkscape:connector-curvature="0"
   transform="translate(-18.172493,-106.12737)" /><path
   style="opacity:0.80319998;fill:#898989;fill-opacity:1;fill-rule:nonzero;stroke:#898989;stroke-width:5.19999981;stroke-miterlimit:4;stroke-dasharray:none;stroke-opacity:1"
   d="m 149.16983,436.88778 c -9.1618,-4.62841 -9.57193,-16.94304 -0.76199,-22.88005 l 2.45262,-1.65282 80.0332,0.003 c 77.51067,0.003 80.10502,0.0465 82.31144,1.39191 9.20879,5.61524 8.76768,19.06474 -0.76729,23.39532 -2.8267,1.28382 -6.62115,1.34726 -81.49762,1.36248 l -78.53288,0.016 z"
   id="path1012"
   inkscape:connector-curvature="0"
   transform="translate(-18.172493,-106.12737)" /><path
   style="opacity:0.80319998;fill:#898989;fill-opacity:1;fill-rule:nonzero;stroke:#898989;stroke-width:5.19999981;stroke-miterlimit:4;stroke-dasharray:none;stroke-opacity:1"
   d="m 195.80492,483.49913 c -11.20975,-1.86215 -21.27189,-11.90332 -23.046,-22.99799 l -0.49227,-3.07845 h 58.70124 58.70125 l -0.49227,3.07845 c -1.29358,8.08962 -7.72265,16.66093 -15.34499,20.45812 -2.01168,1.00215 -5.77339,2.16536 -8.35935,2.58492 -5.72093,0.92818 -64.03593,0.89047 -69.66761,-0.0451 z"
   id="path1014"
   inkscape:connector-curvature="0"
   transform="translate(-18.172493,-106.12737)" /></g>
<g
   id="g6"
   transform="translate(-76.748119,1.8727599)">
</g>
<g
   id="g8"
   transform="translate(-76.748119,1.8727599)">
</g>
<g
   id="g10"
   transform="translate(-76.748119,1.8727599)">
</g>
<g
   id="g12"
   transform="translate(-76.748119,1.8727599)">
</g>
<g
   id="g14"
   transform="translate(-76.748119,1.8727599)">
</g>
<g
   id="g16"
   transform="translate(-76.748119,1.8727599)">
</g>
<g
   id="g18"
   transform="translate(-76.748119,1.8727599)">
</g>
<g
   id="g20"
   transform="translate(-76.748119,1.8727599)">
</g>
<g
   id="g22"
   transform="translate(-76.748119,1.8727599)">
</g>
<g
   id="g24"
   transform="translate(-76.748119,1.8727599)">
</g>
<g
   id="g26"
   transform="translate(-76.748119,1.8727599)">
</g>
<g
   id="g28"
   transform="translate(-76.748119,1.8727599)">
</g>
<g
   id="g30"
   transform="translate(-76.748119,1.8727599)">
</g>
<g
   id="g32"
   transform="translate(-76.748119,1.8727599)">
</g>
<g
   id="g34"
   transform="translate(-76.748119,1.8727599)">
</g>
<path
   style="opacity:0.80319998;fill:#ffffff;fill-opacity:1;fill-rule:nonzero;stroke:none;stroke-width:1.09034967;stroke-miterlimit:4;stroke-dasharray:none;stroke-opacity:1"
   d=""
   id="path902"
   inkscape:connector-curvature="0" /><path
   id="rect91-6"
   style="fill:url(#linearGradient1125);fill-opacity:1;stroke:none;stroke-width:0.1;stroke-miterlimit:4;stroke-dasharray:none"
   d="m 140.63079,65.843463 0.01,34.835937 H 77.677661 V 76.958698 h -4.51367 v 27.855472 h 4.51367 v -0.0996 H 140.6425 l 0.0176,62.96289 H 67.312451 v 5.65234 h 73.349609 v 2.29688 c 0.007,25.08803 0.068,45.11034 0.15039,62.27929 H 92.109321 v 4.84375 h 48.726559 c 0.14372,26.38894 0.36327,42.66016 0.66016,42.66016 0.0649,0 0.1289,0.0493 0.18945,0.12305 H 98.949171 v 4.84375 h 43.312499 c -0.0918,1.76083 -0.41412,3.10351 -0.81446,3.10351 -0.55375,0 -0.85547,9.95685 -0.85547,28.25391 v 28.25195 h 4.27539 v 0.80664 h 15.80665 v -37.81445 h 29.76757 v -4.03516 H 160.67376 V 196.21065 h 55.71679 v 16.35742 h -26.46679 v 4.56836 h 48.36914 v -4.56836 H 220.455 V 190.2751 h -4.06445 v 0.28516 h -55.71679 v -50.45117 h 59.4375 v -4.03711 h -59.4375 V 78.761432 h 34.4707 v -3.105469 h -34.4707 v -9.8125 l -9.289,-3.634499 z"
   inkscape:connector-curvature="0"
   sodipodi:nodetypes="ccccccccccccccccccsccccssccccccccccccccccccccccccccccccc" /><ellipse
   style="opacity:0.80319998;fill:#0000ff;fill-opacity:1;fill-rule:nonzero;stroke:#aeaeae;stroke-width:0.1;stroke-miterlimit:4;stroke-dasharray:none;stroke-opacity:1"
   id="path1023"
   cx="60.635929"
   cy="169.79301"
   rx="8.3593473"
   ry="7.6324477" /><ellipse
   style="opacity:0.80319998;fill:#0000ff;fill-opacity:1;fill-rule:nonzero;stroke:#aeaeae;stroke-width:0.1;stroke-miterlimit:4;stroke-dasharray:none;stroke-opacity:1"
   id="path1023-2"
   cx="75.39463"
   cy="72.554741"
   rx="8.3593473"
   ry="7.6324477" /><ellipse
   style="opacity:0.80319998;fill:#0000ff;fill-opacity:1;fill-rule:nonzero;stroke:#aeaeae;stroke-width:0.1;stroke-miterlimit:4;stroke-dasharray:none;stroke-opacity:1"
   id="path1023-9"
   cx="84.999306"
   cy="238.61191"
   rx="8.3593473"
   ry="7.6324477" /><ellipse
   style="opacity:0.80319998;fill:#0000ff;fill-opacity:1;fill-rule:nonzero;stroke:#aeaeae;stroke-width:0.1;stroke-miterlimit:4;stroke-dasharray:none;stroke-opacity:1"
   id="path1023-3"
   cx="93.472664"
   cy="287.65442"
   rx="8.3593473"
   ry="7.6324477" /><ellipse
   style="opacity:0.80319998;fill:#9d9bff;fill-opacity:1;fill-rule:nonzero;stroke:#aeaeae;stroke-width:0.1;stroke-miterlimit:4;stroke-dasharray:none;stroke-opacity:1"
   id="path1023-1"
   cx="200.93431"
   cy="77.643036"
   rx="8.3593473"
   ry="7.6324477"
   inkscape:transform-center-y="-2.907599"
   inkscape:transform-center-x="13.811096" /><ellipse
   style="opacity:0.80319998;fill:#af54ba;fill-opacity:1;fill-rule:nonzero;stroke:#aeaeae;stroke-width:0.1;stroke-miterlimit:4;stroke-dasharray:none;stroke-opacity:1"
   id="path1023-94"
   cx="226.63408"
   cy="137.86873"
   rx="8.3593473"
   ry="7.6324477" /><ellipse
   style="opacity:0.80319998;fill:#edadfc;fill-opacity:1;fill-rule:nonzero;stroke:#aeaeae;stroke-width:0.07770944;stroke-miterlimit:4;stroke-dasharray:none;stroke-opacity:1"
   id="path1023-7"
   cx="242.90556"
   cy="214.8799"
   rx="6.3145094"
   ry="6.1016059" /><ellipse
   style="opacity:0.80319998;fill:#9e81ff;fill-opacity:1;fill-rule:nonzero;stroke:#aeaeae;stroke-width:0.07131356;stroke-miterlimit:4;stroke-dasharray:none;stroke-opacity:1"
   id="path1023-8"
   cx="184.50157"
   cy="214.36591"
   rx="5.8037119"
   ry="5.5908079"
   inkscape:transform-center-x="-12.133102"
   inkscape:transform-center-y="13.554163" /><ellipse
   style="opacity:0.80319998;fill:#a19fff;fill-opacity:1;fill-rule:nonzero;stroke:#aeaeae;stroke-width:0.1;stroke-miterlimit:4;stroke-dasharray:none;stroke-opacity:1"
   id="path1023-4"
   cx="197.07176"
   cy="310.99713"
   rx="8.3593473"
   ry="7.6324477" /><path
   style="opacity:0.80319998;fill:#b774ff;fill-opacity:1;fill-rule:nonzero;stroke:#aeaeae;stroke-width:0.06199025;stroke-miterlimit:4;stroke-dasharray:none;stroke-opacity:1"
   id="path1102"
   sodipodi:type="arc"
   sodipodi:cx="100.83702"
   sodipodi:cy="-105.0421"
   sodipodi:rx="6.4259796"
   sodipodi:ry="10.012547"
   sodipodi:start="0"
   sodipodi:end="6.176598"
   d="m 107.263,-105.0421 a 6.4259796,10.012547 0 0 1 -6.25477,10.008993 6.4259796,10.012547 0 0 1 -6.588065,-9.475643 6.4259796,10.012547 0 0 1 5.903705,-10.51392 6.4259796,10.012547 0 0 1 6.90266,8.91538 l -6.38951,1.06519 z"
   transform="matrix(0.47396286,0.88054483,-0.97894311,0.20413327,0,0)"
   inkscape:transform-center-x="-4.2218674"
   inkscape:transform-center-y="3.0841386" /></svg>